name C:\Users\tom_v\My Drive\PostDoc\MusculoskeletalSpecialization\ResultsSprinting\Case_2\motion.mot
datacolumns 32
datarows 10
range 0.28730234 0.32177862
endheader 
time	pelvis_tilt	pelvis_list	pelvis_rotation	pelvis_tx	pelvis_ty	pelvis_tz	hip_flexion_r	hip_adduction_r	hip_rotation_r	knee_angle_r	ankle_angle_r	subtalar_angle_r	mtp_angle_r	hip_flexion_l	hip_adduction_l	hip_rotation_l	knee_angle_l	ankle_angle_l	subtalar_angle_l	mtp_angle_l	lumbar_extension	lumbar_bending	lumbar_rotation	arm_flex_r	arm_add_r	arm_rot_r	elbow_flex_r	arm_flex_l	arm_add_l	arm_rot_l	elbow_flex_l	
          0.28730234	         -7.84533093	         -7.31321857	         23.41132257	          2.80536311	          0.93187225	         -0.02745506	         55.39806722	         -6.22626849	         -8.06299070	        -57.45574023	         16.40336208	         -5.22605369	          1.84151342	         -3.69929727	        -13.07726267	          1.63527676	        -29.17718716	        -19.44898560	         -5.70158643	         -3.82363537	         -6.78998278	          6.16806623	        -13.42291758	        -69.99634675	         -0.65286409	         -8.96246481	          1.43888423	         49.99746041	          2.07652811	          3.31551869	        112.00362831	
          0.29113304	         -7.39680203	         -7.08048887	         23.58978427	          2.84219474	          0.93366854	         -0.02809256	         55.14092695	         -6.58964753	         -8.42365279	        -55.17156174	         17.29979505	         -6.25667947	          2.52384659	         -4.32572559	        -13.33211146	          1.59071508	        -30.35303277	        -19.82612342	         -3.73303603	         -0.81945522	         -7.36004280	          6.38273230	        -14.44378376	        -69.98834332	         -2.81224063	        -12.36771382	          0.36764645	         49.99810231	         -0.09912760	          3.17005832	        110.21903292	
          0.29496373	         -6.87525860	         -6.73426745	         23.72975935	          2.87896345	          0.93571979	         -0.02861508	         54.57916461	         -6.94251823	         -8.79325271	        -52.69584770	         18.10984335	         -7.15117909	          3.39364625	         -4.97973535	        -13.39462307	          1.53102377	        -31.48035841	        -20.49130289	         -5.78654781	          1.47226439	         -8.08329150	          6.52104132	        -15.42439424	        -69.99987780	         -5.03056134	        -13.18889546	          0.00293816	         49.99845184	         -2.90772630	          3.23329550	        107.86210128	
          0.29879443	         -6.27511226	         -6.33139464	         23.83975037	          2.91570208	          0.93800189	         -0.02893563	         53.73733606	         -7.20880136	         -9.14561825	        -50.08374701	         18.85943293	         -7.83923631	          4.14295811	         -5.61659696	        -13.40643168	          1.47979126	        -32.59528445	        -20.96119252	         -7.62367953	          2.80710374	         -8.93794672	          6.63244304	        -16.36689194	        -69.94935540	         -7.24223340	        -11.42108629	          0.12635383	         49.99911782	         -6.33481406	          3.65191540	        104.85312224	
          0.30262513	         -5.61675923	         -5.90220657	         23.92433717	          2.95241599	          0.94046346	         -0.02901363	         52.66960578	         -7.36080274	         -9.44563951	        -47.40142908	         19.53707193	         -8.27860806	          4.57761438	         -6.17694879	        -13.42977966	          1.46441605	        -33.74043405	        -20.91632747	         -6.83937194	          3.91016391	         -9.88981679	          6.72906470	        -17.27420530	        -69.65975941	         -9.42372625	         -7.33296592	          0.31092574	         49.99948327	        -10.25008551	          4.53134890	        101.20279193	
          0.30645583	         -4.93545319	         -5.45348325	         23.98178910	          2.98908967	          0.94303987	         -0.02886886	         51.44291553	         -7.41096530	         -9.66412142	        -44.71365383	         20.10111754	         -8.55663542	          4.75681372	         -6.61332045	        -13.43091253	          1.44177300	        -34.90621815	        -21.26182334	         -5.74419626	          4.80324096	        -10.90309529	          6.80122196	        -18.14590238	        -69.00199283	        -11.53187033	         -1.68639983	          0.31901160	         49.99883295	        -14.47485234	          5.93821056	         97.05931984	
          0.31028652	         -4.28328422	         -5.05187909	         24.01469406	          3.02570191	          0.94557409	         -0.02853039	         50.14582046	         -7.34095827	         -9.81910040	        -42.05104960	         20.52750437	         -8.82527031	          4.95015386	         -6.83620558	        -13.43941195	          1.37067037	        -36.14872574	        -21.38190556	         -5.84591364	          5.16221823	        -11.89534491	          6.89889581	        -18.97279477	        -67.95687906	        -13.50091820	          4.46480528	          0.17975898	         49.99290477	        -18.83536551	          7.90657846	         92.63837214	
          0.31411722	         -3.68358504	         -4.75602671	         24.02142471	          3.06225690	          0.94796167	         -0.02801324	         48.82573822	         -7.12337195	         -9.93381961	        -39.42365532	         20.89022827	         -9.10554109	          5.29197168	         -6.80041468	        -13.51293838	          1.25831440	        -37.48860501	        -20.94052728	         -6.47788689	          5.50109064	        -12.81836280	          7.07300238	        -19.72904505	        -66.56300230	        -15.27229632	         10.11936554	          0.04461741	         49.99571027	        -23.17653688	         10.43936877	         88.14131525	
          0.31794792	         -3.15095935	         -4.56884309	         23.98490328	          3.09878129	          0.95016501	         -0.02731838	         47.51065123	         -6.76062214	         -9.99733272	        -36.84901916	         21.30723164	         -9.31880488	          5.34051160	         -6.50752511	        -13.64962119	          1.13000940	        -38.88099241	        -20.64711195	         -6.83556248	          5.96406960	        -13.65891895	          7.31562024	        -20.38412250	        -64.84860181	        -16.80431279	         14.57908527	          0.01397052	         49.98783818	        -27.35627359	         13.43708965	         83.78143057	
          0.32177862	         -2.77384794	         -4.46532574	         23.87281092	          3.13531387	          0.95204056	         -0.02643655	         46.31222751	         -6.30046551	         -9.97014714	        -34.37187746	         21.83644033	         -9.43763276	          4.13728182	         -5.90441474	        -13.77250421	          0.99973296	        -40.30566682	        -20.48100671	         -6.63760424	          6.21137172	        -14.33209915	          7.55502704	        -20.92883548	        -62.81349637	        -18.06268207	         17.53359263	          0.05379010	         49.77405045	        -31.21736955	         16.49193132	         79.85330017	
